<mxfile host="app.diagrams.net" modified="2023-04-27T09:21:55.519Z" agent="Mozilla/5.0 (X11; Ubuntu; Linux x86_64; rv:109.0) Gecko/20100101 Firefox/112.0" etag="O5EYi_ykCf9M9I2urMEC" version="21.2.2" type="github">
  <diagram name="Page-1" id="HiZlvtM-Lk1HVfVGEpxT">
    <mxGraphModel dx="1621" dy="1908" grid="1" gridSize="10" guides="1" tooltips="1" connect="1" arrows="1" fold="1" page="1" pageScale="1" pageWidth="827" pageHeight="1169" math="0" shadow="0">
      <root>
        <mxCell id="0" />
        <mxCell id="1" parent="0" />
        <mxCell id="XbG2bT3qJvOlrQf7pqMG-34" value="" style="rounded=0;whiteSpace=wrap;html=1;" parent="1" vertex="1">
          <mxGeometry x="-730" y="-1140" width="450" height="440" as="geometry" />
        </mxCell>
        <mxCell id="XbG2bT3qJvOlrQf7pqMG-47" style="edgeStyle=orthogonalEdgeStyle;rounded=0;orthogonalLoop=1;jettySize=auto;html=1;entryX=1;entryY=0.5;entryDx=0;entryDy=0;entryPerimeter=0;" parent="1" source="XbG2bT3qJvOlrQf7pqMG-13" target="XbG2bT3qJvOlrQf7pqMG-30" edge="1">
          <mxGeometry relative="1" as="geometry">
            <Array as="points">
              <mxPoint x="-165" y="-910" />
            </Array>
          </mxGeometry>
        </mxCell>
        <mxCell id="XbG2bT3qJvOlrQf7pqMG-13" value="" style="shape=folder;fontStyle=1;spacingTop=10;tabWidth=40;tabHeight=14;tabPosition=left;html=1;whiteSpace=wrap;" parent="1" vertex="1">
          <mxGeometry x="-250" y="-1074.33" width="170" height="93.33" as="geometry" />
        </mxCell>
        <mxCell id="XbG2bT3qJvOlrQf7pqMG-14" value="&lt;font style=&quot;font-size: 12px;&quot;&gt;Data&lt;/font&gt;" style="strokeWidth=1;html=1;shadow=0;dashed=0;shape=mxgraph.ios.iTextInput;strokeColor=#444444;buttonText=;fontSize=8;whiteSpace=wrap;align=left;" parent="1" vertex="1">
          <mxGeometry x="-250" y="-1080" width="46.366129032258065" height="20" as="geometry" />
        </mxCell>
        <mxCell id="XbG2bT3qJvOlrQf7pqMG-24" value="&lt;font style=&quot;font-size: 12px;&quot;&gt;Shp&lt;/font&gt;" style="strokeWidth=1;html=1;shadow=0;dashed=0;shape=mxgraph.ios.iTextInput;strokeColor=#444444;buttonText=;fontSize=8;whiteSpace=wrap;align=left;" parent="1" vertex="1">
          <mxGeometry x="-244.51612903225805" y="-1051" width="65.80645161290323" height="23.02" as="geometry" />
        </mxCell>
        <mxCell id="XbG2bT3qJvOlrQf7pqMG-25" value="&lt;font style=&quot;font-size: 12px;&quot;&gt;CSV&lt;/font&gt;" style="strokeWidth=1;html=1;shadow=0;dashed=0;shape=mxgraph.ios.iTextInput;strokeColor=#444444;buttonText=;fontSize=8;whiteSpace=wrap;align=left;" parent="1" vertex="1">
          <mxGeometry x="-244.51612903225805" y="-1019.18" width="65.80645161290323" height="23.02" as="geometry" />
        </mxCell>
        <mxCell id="XbG2bT3qJvOlrQf7pqMG-37" style="edgeStyle=orthogonalEdgeStyle;rounded=0;orthogonalLoop=1;jettySize=auto;html=1;" parent="1" source="XbG2bT3qJvOlrQf7pqMG-3" target="XbG2bT3qJvOlrQf7pqMG-30" edge="1">
          <mxGeometry relative="1" as="geometry" />
        </mxCell>
        <mxCell id="XbG2bT3qJvOlrQf7pqMG-3" value="" style="shape=folder;fontStyle=1;spacingTop=10;tabWidth=40;tabHeight=14;tabPosition=left;html=1;whiteSpace=wrap;" parent="1" vertex="1">
          <mxGeometry x="-470" y="-1094" width="180" height="135" as="geometry" />
        </mxCell>
        <mxCell id="XbG2bT3qJvOlrQf7pqMG-23" value="" style="shape=folder;fontStyle=1;spacingTop=10;tabWidth=40;tabHeight=14;tabPosition=left;html=1;whiteSpace=wrap;" parent="1" vertex="1">
          <mxGeometry x="-440" y="-1069" width="100" height="40" as="geometry" />
        </mxCell>
        <mxCell id="XbG2bT3qJvOlrQf7pqMG-27" value="&lt;font style=&quot;font-size: 12px;&quot;&gt;Shp&lt;/font&gt;" style="strokeWidth=1;html=1;shadow=0;dashed=0;shape=mxgraph.ios.iTextInput;strokeColor=#444444;buttonText=;fontSize=8;whiteSpace=wrap;align=left;" parent="1" vertex="1">
          <mxGeometry x="-440" y="-1072" width="41.21" height="17" as="geometry" />
        </mxCell>
        <mxCell id="XbG2bT3qJvOlrQf7pqMG-28" value="" style="shape=folder;fontStyle=1;spacingTop=10;tabWidth=40;tabHeight=14;tabPosition=left;html=1;whiteSpace=wrap;" parent="1" vertex="1">
          <mxGeometry x="-440" y="-1017" width="100" height="40" as="geometry" />
        </mxCell>
        <mxCell id="XbG2bT3qJvOlrQf7pqMG-29" value="&lt;font style=&quot;font-size: 12px;&quot;&gt;CSV&lt;/font&gt;" style="strokeWidth=1;html=1;shadow=0;dashed=0;shape=mxgraph.ios.iTextInput;strokeColor=#444444;buttonText=;fontSize=8;whiteSpace=wrap;align=left;" parent="1" vertex="1">
          <mxGeometry x="-440" y="-1020" width="41.21" height="17" as="geometry" />
        </mxCell>
        <mxCell id="XbG2bT3qJvOlrQf7pqMG-49" style="edgeStyle=orthogonalEdgeStyle;rounded=0;orthogonalLoop=1;jettySize=auto;html=1;entryX=0;entryY=0.5;entryDx=0;entryDy=0;entryPerimeter=0;" parent="1" source="XbG2bT3qJvOlrQf7pqMG-1" target="XbG2bT3qJvOlrQf7pqMG-30" edge="1">
          <mxGeometry relative="1" as="geometry">
            <Array as="points">
              <mxPoint x="-650" y="-910" />
            </Array>
          </mxGeometry>
        </mxCell>
        <mxCell id="XbG2bT3qJvOlrQf7pqMG-1" value="" style="shape=folder;fontStyle=1;spacingTop=10;tabWidth=40;tabHeight=14;tabPosition=left;html=1;whiteSpace=wrap;" parent="1" vertex="1">
          <mxGeometry x="-720" y="-1090" width="160" height="140" as="geometry" />
        </mxCell>
        <mxCell id="XbG2bT3qJvOlrQf7pqMG-6" value="&lt;font style=&quot;font-size: 12px;&quot;&gt;Affichage&lt;/font&gt;" style="strokeWidth=1;html=1;shadow=0;dashed=0;shape=mxgraph.ios.iTextInput;strokeColor=#444444;buttonText=;fontSize=8;whiteSpace=wrap;align=left;" parent="1" vertex="1">
          <mxGeometry x="-720" y="-1099" width="92.73" height="24" as="geometry" />
        </mxCell>
        <mxCell id="XbG2bT3qJvOlrQf7pqMG-21" value="" style="shape=folder;fontStyle=1;spacingTop=10;tabWidth=40;tabHeight=14;tabPosition=left;html=1;whiteSpace=wrap;" parent="1" vertex="1">
          <mxGeometry x="-699.39" y="-1007" width="119.39" height="41" as="geometry" />
        </mxCell>
        <mxCell id="XbG2bT3qJvOlrQf7pqMG-22" value="&lt;font style=&quot;font-size: 12px;&quot;&gt;Itowns&lt;/font&gt;" style="strokeWidth=1;html=1;shadow=0;dashed=0;shape=mxgraph.ios.iTextInput;strokeColor=#444444;buttonText=;fontSize=8;whiteSpace=wrap;align=left;" parent="1" vertex="1">
          <mxGeometry x="-699.39" y="-1007" width="41.21" height="17" as="geometry" />
        </mxCell>
        <mxCell id="XbG2bT3qJvOlrQf7pqMG-19" value="" style="shape=folder;fontStyle=1;spacingTop=10;tabWidth=40;tabHeight=14;tabPosition=left;html=1;whiteSpace=wrap;" parent="1" vertex="1">
          <mxGeometry x="-699.39" y="-1053" width="119.39" height="40" as="geometry" />
        </mxCell>
        <mxCell id="XbG2bT3qJvOlrQf7pqMG-26" value="&lt;font style=&quot;font-size: 12px;&quot;&gt;html&lt;/font&gt;" style="strokeWidth=1;html=1;shadow=0;dashed=0;shape=mxgraph.ios.iTextInput;strokeColor=#444444;buttonText=;fontSize=8;whiteSpace=wrap;align=left;" parent="1" vertex="1">
          <mxGeometry x="-699.39" y="-1056" width="41.21" height="16" as="geometry" />
        </mxCell>
        <mxCell id="XbG2bT3qJvOlrQf7pqMG-7" value="&lt;font style=&quot;font-size: 12px;&quot;&gt;RécupérationDonnee&lt;/font&gt;" style="strokeWidth=1;html=1;shadow=0;dashed=0;shape=mxgraph.ios.iTextInput;strokeColor=#444444;buttonText=;fontSize=8;whiteSpace=wrap;align=left;" parent="1" vertex="1">
          <mxGeometry x="-470" y="-1100" width="123" height="20" as="geometry" />
        </mxCell>
        <mxCell id="XbG2bT3qJvOlrQf7pqMG-30" value="main" style="whiteSpace=wrap;html=1;shape=mxgraph.basic.document" parent="1" vertex="1">
          <mxGeometry x="-540" y="-940" width="60" height="60" as="geometry" />
        </mxCell>
        <mxCell id="XbG2bT3qJvOlrQf7pqMG-15" value="" style="group" parent="1" vertex="1" connectable="0">
          <mxGeometry x="-588.79" y="-834" width="190" height="101" as="geometry" />
        </mxCell>
        <mxCell id="XbG2bT3qJvOlrQf7pqMG-16" value="" style="shape=folder;fontStyle=1;spacingTop=10;tabWidth=40;tabHeight=14;tabPosition=left;html=1;whiteSpace=wrap;" parent="XbG2bT3qJvOlrQf7pqMG-15" vertex="1">
          <mxGeometry x="-10" width="190" height="95.19" as="geometry" />
        </mxCell>
        <mxCell id="XbG2bT3qJvOlrQf7pqMG-17" value="&lt;font style=&quot;font-size: 12px;&quot;&gt;ConnectionDonnee&lt;/font&gt;" style="strokeWidth=1;html=1;shadow=0;dashed=0;shape=mxgraph.ios.iTextInput;strokeColor=#444444;buttonText=;fontSize=8;whiteSpace=wrap;align=left;" parent="XbG2bT3qJvOlrQf7pqMG-15" vertex="1">
          <mxGeometry x="-10" y="-6" width="110" height="20" as="geometry" />
        </mxCell>
        <mxCell id="XbG2bT3qJvOlrQf7pqMG-32" value="bdnbShp" style="whiteSpace=wrap;html=1;shape=mxgraph.basic.document" parent="XbG2bT3qJvOlrQf7pqMG-15" vertex="1">
          <mxGeometry y="29" width="170" height="22.4" as="geometry" />
        </mxCell>
        <mxCell id="XbG2bT3qJvOlrQf7pqMG-33" value="bdnbCsv" style="whiteSpace=wrap;html=1;shape=mxgraph.basic.document" parent="XbG2bT3qJvOlrQf7pqMG-15" vertex="1">
          <mxGeometry y="59" width="170" height="22.4" as="geometry" />
        </mxCell>
        <mxCell id="XbG2bT3qJvOlrQf7pqMG-51" style="edgeStyle=orthogonalEdgeStyle;rounded=0;orthogonalLoop=1;jettySize=auto;html=1;" parent="1" source="XbG2bT3qJvOlrQf7pqMG-17" target="XbG2bT3qJvOlrQf7pqMG-30" edge="1">
          <mxGeometry relative="1" as="geometry" />
        </mxCell>
        <mxCell id="7zWJk1lxJ7t4KXdJnpEg-10" style="edgeStyle=orthogonalEdgeStyle;rounded=0;orthogonalLoop=1;jettySize=auto;html=1;entryX=1;entryY=0.917;entryDx=0;entryDy=0;entryPerimeter=0;" parent="1" source="7zWJk1lxJ7t4KXdJnpEg-4" target="XbG2bT3qJvOlrQf7pqMG-30" edge="1">
          <mxGeometry relative="1" as="geometry" />
        </mxCell>
        <mxCell id="7zWJk1lxJ7t4KXdJnpEg-4" value="" style="shape=folder;fontStyle=1;spacingTop=10;tabWidth=40;tabHeight=14;tabPosition=left;html=1;whiteSpace=wrap;" parent="1" vertex="1">
          <mxGeometry x="-244.52" y="-864.33" width="124.52" height="44.33" as="geometry" />
        </mxCell>
        <mxCell id="7zWJk1lxJ7t4KXdJnpEg-5" value="&lt;font style=&quot;font-size: 12px;&quot;&gt;JSItwon&lt;/font&gt;" style="strokeWidth=1;html=1;shadow=0;dashed=0;shape=mxgraph.ios.iTextInput;strokeColor=#444444;buttonText=;fontSize=8;whiteSpace=wrap;align=left;" parent="1" vertex="1">
          <mxGeometry x="-244.52" y="-870" width="46.366129032258065" height="20" as="geometry" />
        </mxCell>
        <mxCell id="7zWJk1lxJ7t4KXdJnpEg-12" style="edgeStyle=orthogonalEdgeStyle;rounded=0;orthogonalLoop=1;jettySize=auto;html=1;entryX=1;entryY=0.333;entryDx=0;entryDy=0;entryPerimeter=0;" parent="1" source="7zWJk1lxJ7t4KXdJnpEg-8" target="XbG2bT3qJvOlrQf7pqMG-30" edge="1">
          <mxGeometry relative="1" as="geometry" />
        </mxCell>
        <mxCell id="7zWJk1lxJ7t4KXdJnpEg-8" value="" style="shape=folder;fontStyle=1;spacingTop=10;tabWidth=40;tabHeight=14;tabPosition=left;html=1;whiteSpace=wrap;" parent="1" vertex="1">
          <mxGeometry x="-244.52" y="-794.33" width="124.52" height="44.33" as="geometry" />
        </mxCell>
        <mxCell id="7zWJk1lxJ7t4KXdJnpEg-9" value="&lt;font style=&quot;font-size: 12px;&quot;&gt;Utile&lt;/font&gt;" style="strokeWidth=1;html=1;shadow=0;dashed=0;shape=mxgraph.ios.iTextInput;strokeColor=#444444;buttonText=;fontSize=8;whiteSpace=wrap;align=left;" parent="1" vertex="1">
          <mxGeometry x="-244.52" y="-800" width="46.366129032258065" height="20" as="geometry" />
        </mxCell>
      </root>
    </mxGraphModel>
  </diagram>
</mxfile>
